<?xml version="1.0" ?><!DOCTYPE svg  PUBLIC '-//W3C//DTD SVG 1.1//EN'  'http://www.w3.org/Graphics/SVG/1.1/DTD/svg11.dtd'><svg xmlns="http://www.w3.org/2000/svg" width="272.000" height="322.000" viewBox="-11.000 -11.000 272.000 322.000"><rect x="0.0" y="0.0" width="250.0" height="300.0" fill="#c6d"/><rect x="100.0" y="0.0" width="50.0" height="300.0" fill="#785"/><rect x="0.0" y="100.0" width="250.0" height="100.0" fill="#f7d"/><rect x="0.0" y="0.0" width="250.0" height="300.0" fill="#aab"/><rect x="100.0" y="0.0" width="50.0" height="300.0" fill="#32d"/><rect x="0.0" y="100.0" width="250.0" height="100.0" fill="#804"/><rect x="0.0" y="0.0" width="250.0" height="300.0" fill="#5f2"/><rect x="100.0" y="0.0" width="50.0" height="300.0" fill="#f77"/><rect x="0.0" y="100.0" width="250.0" height="100.0" fill="#e4b"/><rect x="0.0" y="0.0" width="250.0" height="300.0" fill="#bc0"/><rect x="100.0" y="0.0" width="50.0" height="300.0" fill="#286"/><rect x="0.0" y="100.0" width="250.0" height="100.0" fill="#210"/><rect x="0.0" y="0.0" width="250.0" height="300.0" fill="#331"/><rect x="100.0" y="0.0" width="50.0" height="300.0" fill="#e91"/><rect x="0.0" y="100.0" width="250.0" height="100.0" fill="#3ab"/><rect x="0.0" y="0.0" width="250.0" height="300.0" fill="#d6e"/><rect x="100.0" y="0.0" width="50.0" height="300.0" fill="#2f9"/><rect x="0.0" y="100.0" width="250.0" height="100.0" fill="#96a"/><rect x="0.0" y="0.0" width="250.0" height="300.0" fill="#cb5"/><rect x="100.0" y="0.0" width="50.0" height="300.0" fill="#386"/><rect x="0.0" y="100.0" width="250.0" height="100.0" fill="#36a"/><rect x="0.0" y="0.0" width="250.0" height="300.0" fill="#e1f"/><rect x="100.0" y="0.0" width="50.0" height="300.0" fill="#e3a"/><rect x="0.0" y="100.0" width="250.0" height="100.0" fill="#e58"/><rect x="0.0" y="0.0" width="250.0" height="300.0" fill="#338"/><rect x="100.0" y="0.0" width="50.0" height="300.0" fill="#f9a"/><rect x="0.0" y="100.0" width="250.0" height="100.0" fill="#daa"/><rect x="0.0" y="0.0" width="250.0" height="300.0" fill="#b05"/><rect x="100.0" y="0.0" width="50.0" height="300.0" fill="#89f"/><rect x="0.0" y="100.0" width="250.0" height="100.0" fill="#d6a"/><rect x="0.0" y="0.0" width="250.0" height="300.0" fill="#d0a"/><rect x="100.0" y="0.0" width="50.0" height="300.0" fill="#b69"/><rect x="0.0" y="100.0" width="250.0" height="100.0" fill="#ce4"/><rect x="0.0" y="0.0" width="250.0" height="300.0" fill="#5b5"/><rect x="100.0" y="0.0" width="50.0" height="300.0" fill="#30a"/><rect x="0.0" y="100.0" width="250.0" height="100.0" fill="#cdb"/><rect x="0.0" y="0.0" width="250.0" height="300.0" fill="#e6a"/><rect x="100.0" y="0.0" width="50.0" height="300.0" fill="#73e"/><rect x="0.0" y="100.0" width="250.0" height="100.0" fill="#851"/><rect x="0.0" y="0.0" width="250.0" height="300.0" fill="#05f"/><rect x="100.0" y="0.0" width="50.0" height="300.0" fill="#7fc"/><rect x="0.0" y="100.0" width="250.0" height="100.0" fill="#19d"/><rect x="0.0" y="0.0" width="250.0" height="300.0" fill="#1bb"/><rect x="100.0" y="0.0" width="50.0" height="300.0" fill="#b85"/><rect x="0.0" y="100.0" width="250.0" height="100.0" fill="#548"/><rect x="0.0" y="0.0" width="250.0" height="300.0" fill="#97e"/><rect x="100.0" y="0.0" width="50.0" height="300.0" fill="#afc"/><rect x="0.0" y="100.0" width="250.0" height="100.0" fill="#b90"/><rect x="0.0" y="0.0" width="250.0" height="300.0" fill="#d99"/><rect x="100.0" y="0.0" width="50.0" height="300.0" fill="#604"/><rect x="0.0" y="100.0" width="250.0" height="100.0" fill="#0a1"/><rect x="0.0" y="0.0" width="250.0" height="300.0" fill="#465"/><rect x="100.0" y="0.0" width="50.0" height="300.0" fill="#899"/><rect x="0.0" y="100.0" width="250.0" height="100.0" fill="#c0a"/><rect x="0.0" y="0.0" width="250.0" height="300.0" fill="#c7e"/><rect x="100.0" y="0.0" width="50.0" height="300.0" fill="#a05"/><rect x="0.0" y="100.0" width="250.0" height="100.0" fill="#8ca"/><rect x="0.0" y="0.0" width="250.0" height="300.0" fill="#752"/><rect x="100.0" y="0.0" width="50.0" height="300.0" fill="#f8e"/><rect x="0.0" y="100.0" width="250.0" height="100.0" fill="#a81"/><rect x="0.0" y="0.0" width="250.0" height="300.0" fill="#042"/><rect x="100.0" y="0.0" width="50.0" height="300.0" fill="#c22"/><rect x="0.0" y="100.0" width="250.0" height="100.0" fill="#07e"/></svg>